# xmcd
# 
# Track frame offsets:
#     183
#     7330
#     32873
#     46233
#     66830
#     79700
#     97703
#     117790
#     134015
#     152283
#     170693
# 
# Disc length: 2571
# 
# Revision: 7
# Processed by: cddbd v1.5.2PL0 Copyright (c) Steve Scherf et al.
# Submitted via: fre:ac v1.0.27
# 
DISCID=870a090b
DTITLE=宗次郎 - 大黄河
DYEAR=1986
DGENRE=New Age
TTITLE0=大黄河 オープニングテーマ
TTITLE1=壮雲海～星宿海
TTITLE2=冬雪花
TTITLE3=月霞草
TTITLE4=朧伝説
TTITLE5=黄河源
TTITLE6=大黄河
TTITLE7=童戯原
TTITLE8=天清流
TTITLE9=麗泉郷
TTITLE10=陽春麓
EXTD=
EXTT0=
EXTT1=
EXTT2=
EXTT3=
EXTT4=
EXTT5=
EXTT6=
EXTT7=
EXTT8=
EXTT9=
EXTT10=
PLAYORDER=
